<svg xmlns="http://www.w3.org/2000/svg" style="display: none;">

    <symbol id="simple-ui-icon-arrow-left" viewBox="0 0 20.413 16.85">
        <g transform="translate(1.413 1.411)">
            <line x1="18" transform="translate(0 7)" fill="none" stroke="currentColor" stroke-linecap="round" stroke-width="2"/>
            <path d="M0,0,7.859,6.868" transform="matrix(1, -0.017, 0.017, 1, 0.022, 7.137)" fill="none" stroke="currentColor" stroke-linecap="round" stroke-width="2"/>
            <line y1="7" x2="8" fill="none" stroke="currentColor" stroke-linecap="round" stroke-width="2"/>
        </g>
    </symbol>

    <symbol id="simple-ui-icon-chevron-circle-left" viewBox="0 0 24 24">
        <circle cx="12" cy="12" r="12" />
        <line y1="6" x2="6" transform="translate(8 6)" fill="none" stroke="#fff" stroke-linecap="round" stroke-width="3"/>
        <line x2="6" y2="6" transform="translate(8 12)" fill="none" stroke="#fff" stroke-linecap="round" stroke-width="3"/>
    </symbol>

    <symbol id="simple-ui-icon-chevron-circle-right" viewBox="0 0 24 24">
        <g transform="translate(24 24) rotate(180)">
            <circle cx="12" cy="12" r="12" />
            <line y1="6" x2="6" transform="translate(8 6)" fill="none" stroke="#fff" stroke-linecap="round" stroke-width="3"/>
            <line x2="6" y2="6" transform="translate(8 12)" fill="none" stroke="#fff" stroke-linecap="round" stroke-width="3"/>
        </g>
    </symbol>

    <symbol id="simple-ui-icon-sorting-arrow-up" viewBox="0 0 6 4.789">
        <path d="M3,0,6,4.789H0Z" fill="currentColor"/>
    </symbol>

    <symbol id="simple-ui-icon-checkbox-checked" viewBox="0 0 15 15">
        <rect width="15" height="15" rx="2"/>
        <g transform="translate(-160 -138)">
            <line x2="4.204" y2="4" transform="translate(161.688 145.345)" fill="none" stroke="#fff" stroke-width="1.5"/>
            <path d="M0,7.757,4.193,3.879,8.385,0" transform="translate(164.927 141.621)" fill="none" stroke="#fff" stroke-width="1.5"/>
        </g>
    </symbol>

    <symbol id="simple-ui-icon-checkbox-unchecked" viewBox="0 0 15 15">
        <g fill="none" stroke="#707070" stroke-width="1">
            <rect width="15" height="15" rx="2" stroke="none"/>
            <rect x="0.5" y="0.5" width="14" height="14" rx="1.5" fill="none"/>
        </g>
    </symbol>

    <symbol id="simple-ui-icon-plus-circle" viewBox="0 0 16 16">
        <circle cx="8" cy="8" r="8" />
        <line x2="10" transform="translate(3 8.32)" fill="none" stroke="#fff" stroke-linecap="round" stroke-width="2"/>
        <line y2="10" transform="translate(8 3.32)" fill="none" stroke="#fff" stroke-linecap="round" stroke-width="2"/>
    </symbol>


    <symbol id="simple-ui-icon-star-filled" viewBox="0 0 20 20">
        <path d="M10 1.3l2.388 6.722H18.8l-5.232 3.948 1.871 6.928L10 14.744l-5.438 4.154 1.87-6.928-5.233-3.948h6.412L10 1.3z"/>
    </symbol>

    <symbol id="simple-ui-icon-star-outlined" viewBox="0 0 20 20">
        <path d="M18.8 8.022h-6.413L10 1.3 7.611 8.022H1.199l5.232 3.947-1.871 6.929L10 14.744l5.438 4.154-1.869-6.929L18.8 8.022zM10 12.783l-3.014 2.5 1.243-3.562-2.851-2.3 3.522.101 1.1-4.04 1.099 4.04 3.521-.101-2.851 2.3 1.243 3.562-3.012-2.5z"/>
    </symbol>

    <symbol id="simple-ui-icon-trash-can" viewBox="0 0 16 16">
        <path d="M-4729-5860h-9a2,2,0,0,1-2-2v-10h13v10A2,2,0,0,1-4729-5860Zm-.5-11.271a.751.751,0,0,0-.75.75v8a.751.751,0,0,0,.75.75.751.751,0,0,0,.75-.75v-8A.751.751,0,0,0-4729.5-5871.271Zm-4,0a.751.751,0,0,0-.75.75v8a.751.751,0,0,0,.75.75.751.751,0,0,0,.75-.75v-8A.751.751,0,0,0-4733.5-5871.271Zm-4,0a.751.751,0,0,0-.75.75v8a.751.751,0,0,0,.75.75.751.751,0,0,0,.75-.75v-8A.751.751,0,0,0-4737.5-5871.271Z" transform="translate(4741.5 5876)"/>
        <rect width="16" height="2" rx="1" transform="translate(0 1)" />
        <path d="M1,0H3A1,1,0,0,1,4,1V1A0,0,0,0,1,4,1H0A0,0,0,0,1,0,1V1A1,1,0,0,1,1,0Z" transform="translate(6)" />
    </symbol>

    <symbol id="simple-ui-icon-close" viewBox="0 0 18.155 18.121">
        <g transform="translate(1.061 1.061)">
            <line x2="16" y2="16" fill="none" stroke="currentColor" stroke-width="3" />
            <path d="M15,0,0,16" transform="translate(1)" fill="none" stroke="currentColor" stroke-width="3" />
        </g>
    </symbol>

    <symbol id="simple-ui-icon-menu" viewBox="0 0 24 14">
        <path d="M1,0H23a1,1,0,0,1,0,2H1A1,1,0,0,1,1,0Z" />
        <rect width="24" height="2" rx="1" transform="translate(0 6)" />
        <rect width="24" height="2" rx="1" transform="translate(0 12)" />
    </symbol>

    <symbol id="simple-ui-icon-pencil" viewBox="0 0 20.849 21.152">
        <rect width="5" height="14" transform="translate(13.435 4.183) rotate(45)" />
        <path d="M2.5,0,5,5H0Z" transform="translate(3.536 21.152) rotate(-135)" />
        <path d="M2,0H3A2,2,0,0,1,5,2V4A0,0,0,0,1,5,4H0A0,0,0,0,1,0,4V2A2,2,0,0,1,2,0Z" transform="translate(17.314) rotate(45)" />
    </symbol>

    <symbol id="simple-ui-icon-logout" viewBox="0 0 18.319 18">
        <g transform="translate(1 1)">
            <g transform="translate(15.959 13.942) rotate(180)">
                <line x1="10.459" transform="translate(0 6.335)" fill="none" stroke="currentColor" stroke-linecap="round" stroke-width="2"/>
                <path d="M0,0,3.813,3.276" transform="translate(0.05 6.438)" fill="none" stroke="currentColor" stroke-linecap="round" stroke-width="2"/>
                <path d="M0,0,3.813,3.276" transform="translate(3.595 2.169) rotate(90)" fill="none" stroke="currentColor" stroke-linecap="round" stroke-width="2"/>
                <path d="M0,5.577" transform="translate(0 0.758)" fill="none" stroke="currentColor" stroke-linecap="round" stroke-width="2"/>
            </g>
            <g>
                <line x1="10.961" transform="translate(0.039)" fill="none" stroke="currentColor" stroke-linecap="round" stroke-width="2"/>
                <path d="M0,15.607V0" fill="none" stroke="currentColor" stroke-linecap="round" stroke-width="2"/>
                <line x1="11" transform="translate(0 16)" fill="none" stroke="currentColor" stroke-linecap="round" stroke-width="2"/>
            </g>
        </g>
    </symbol>

    <symbol id="simple-ui-icon-error" viewBox="0 0 24.002 23.999">
        <path d="M-4796-5947.5a11.926,11.926,0,0,1-8.486-3.515A11.926,11.926,0,0,1-4808-5959.5a11.918,11.918,0,0,1,3.515-8.484A11.929,11.929,0,0,1-4796-5971.5a11.929,11.929,0,0,1,8.486,3.514A11.918,11.918,0,0,1-4784-5959.5a11.926,11.926,0,0,1-3.515,8.486A11.926,11.926,0,0,1-4796-5947.5Zm0-7.5a1.5,1.5,0,0,0-1.5,1.5,1.5,1.5,0,0,0,1.5,1.5,1.5,1.5,0,0,0,1.5-1.5A1.5,1.5,0,0,0-4796-5955Zm-.243-13a1.517,1.517,0,0,0-1.663,1.082,47.341,47.341,0,0,0,.519,8.327c.227.775.89,1.643,1.438,1.643.781,0,1.208-1.148,1.355-1.643.325-.981.74-7.491.438-8.327A1.467,1.467,0,0,0-4795.7-5968l-.146,0h-.008l-.1,0h-.132Z" transform="translate(4808.001 5971.496)" />
    </symbol>

    <symbol id="simple-ui-icon-success" viewBox="0 0 23.999 24.002">
        <path d="M-4654-5742a11.922,11.922,0,0,1-8.486-3.515A11.922,11.922,0,0,1-4666-5754a11.922,11.922,0,0,1,3.515-8.486A11.922,11.922,0,0,1-4654-5766a11.916,11.916,0,0,1,8.483,3.515A11.922,11.922,0,0,1-4642-5754a11.922,11.922,0,0,1-3.515,8.486A11.916,11.916,0,0,1-4654-5742Zm-1.959-6.755.036,0h.108a.022.022,0,0,1,.015,0h.021a.032.032,0,0,0,.016,0h.018l.009,0h.026a.037.037,0,0,1,.018,0l.009,0h.018l.012,0a.032.032,0,0,0,.015,0h.009l.012,0a.018.018,0,0,0,.012,0h.011l.006,0a.024.024,0,0,0,.013,0l.016,0,.011,0c.006,0,.011,0,.013,0a.064.064,0,0,0,.016,0l.008,0h.009l.026-.009h.006l.026-.009h.006a.1.1,0,0,1,.024-.01l0,0a1.49,1.49,0,0,0,.572-.348.147.147,0,0,1,.023-.021l7.662-7.748a1.5,1.5,0,0,0-.013-2.12,1.488,1.488,0,0,0-1.055-.435,1.493,1.493,0,0,0-1.068.446l-6.555,6.628-2.942-3.187a1.487,1.487,0,0,0-1.1-.483,1.5,1.5,0,0,0-1.018.4,1.5,1.5,0,0,0-.086,2.118l4,4.336.029.029.029.03.006.006.009.009.018.018a.078.078,0,0,0,.018.015l.009.009a.147.147,0,0,1,.023.021l.006,0a.1.1,0,0,0,.024.021,1.505,1.505,0,0,0,.728.318h0l.018,0h.018l.013,0h.015l.008,0h0a.113.113,0,0,1,.032,0Z" transform="translate(4666 5766.001)" />
    </symbol>

    <symbol id="simple-ui-icon-info" viewBox="0 0 24.001 23.999">
        <path d="M-4908-5947.5a11.922,11.922,0,0,1-8.486-3.515A11.919,11.919,0,0,1-4920-5959.5a11.918,11.918,0,0,1,3.515-8.485A11.922,11.922,0,0,1-4908-5971.5a11.921,11.921,0,0,1,8.485,3.514A11.918,11.918,0,0,1-4896-5959.5a11.919,11.919,0,0,1-3.515,8.485A11.919,11.919,0,0,1-4908-5947.5Zm0-14.131a1.5,1.5,0,0,0-1.5,1.5v7a1.5,1.5,0,0,0,1.5,1.5,1.5,1.5,0,0,0,1.5-1.5v-7A1.5,1.5,0,0,0-4908-5961.629Zm0-5.366a1.5,1.5,0,0,0-1.5,1.5,1.5,1.5,0,0,0,1.5,1.5,1.5,1.5,0,0,0,1.5-1.5A1.5,1.5,0,0,0-4908-5967Z" transform="translate(4920 5971.497)" />
    </symbol>

    <symbol id="simple-ui-icon-warning" viewBox="0 0 24 21.121">
        <path d="M-4657-5113.879h-24l12-21.121,12,21.119Zm-11.92-4.816a1.033,1.033,0,0,0-1.032,1.032,1.033,1.033,0,0,0,1.032,1.032,1.034,1.034,0,0,0,1.034-1.032A1.034,1.034,0,0,0-4668.921-5118.7Zm-.164-8.952a1.046,1.046,0,0,0-1.148.746,32.678,32.678,0,0,0,.358,5.733c.154.534.61,1.13.99,1.13.534,0,.831-.791.934-1.13a25.994,25.994,0,0,0,.3-5.733,1.009,1.009,0,0,0-1.061-.746h-.374Z" transform="translate(4681 5135)" />
    </symbol>

    <symbol id="simple-ui-icon-notification" viewBox="0 0 20 19.961">
        <path d="M-4977.5-9386a1.5,1.5,0,0,1-1.5-1.5,1.5,1.5,0,0,1,1.5-1.5h17a1.5,1.5,0,0,1,1.5,1.5,1.5,1.5,0,0,1-1.5,1.5Zm1.5-3v-5a7,7,0,0,1,5.021-6.716,2.017,2.017,0,0,1-.02-.284,2,2,0,0,1,2-2,2,2,0,0,1,2,2,2.017,2.017,0,0,1-.02.284A7,7,0,0,1-4962-9394v5Z" transform="translate(4979 9403.001)" />
        <g transform="translate(7.001 17.741)">
            <path d="M0,0H5.94A2.857,2.857,0,0,1,2.97,1.961,2.859,2.859,0,0,1,0,0Z" transform="translate(0.029 0.26)" />
        </g>
    </symbol>

</svg>