<svg xmlns="http://www.w3.org/2000/svg" style="display: none;">

    <symbol id="arrow-left" viewBox="0 0 20.413 16.85">
        <g transform="translate(1.413 1.411)">
            <line x1="18" transform="translate(0 7)" fill="none" stroke="currentColor" stroke-linecap="round" stroke-width="2"/>
            <path d="M0,0,7.859,6.868" transform="matrix(1, -0.017, 0.017, 1, 0.022, 7.137)" fill="none" stroke="currentColor" stroke-linecap="round" stroke-width="2"/>
            <line y1="7" x2="8" fill="none" stroke="currentColor" stroke-linecap="round" stroke-width="2"/>
        </g>
    </symbol>

    <symbol id="chevron-circle-left" viewBox="0 0 17 17">
        <circle cx="8.5" cy="8.5" r="8.5" />
        <g transform="translate(5.616 4.5)">
            <path d="M5.729,0H0" transform="translate(0 4.305) rotate(45)" fill="none" stroke="#fff" stroke-linecap="round" stroke-width="2"/>
            <line x1="3.883" y2="3.695" transform="translate(0)" fill="none" stroke="#fff" stroke-linecap="round" stroke-width="2"/>
        </g>
    </symbol>

    <symbol id="chevron-circle-right" viewBox="0 0 17 17">
        <g transform="translate(17 17) rotate(180)">
            <circle cx="8.5" cy="8.5" r="8.5" />
            <g transform="translate(-100 -628)">
                <path d="M5.729,0H0" transform="translate(105.616 636.805) rotate(45)" stroke="#fff" stroke-linecap="round" stroke-width="2"/>
                <line x1="3.883" y2="3.695" transform="translate(105.617 632.5)" fill="none" stroke="#fff" stroke-linecap="round" stroke-width="2"/>
            </g>
        </g>
    </symbol>

    <symbol id="sorting-arrow-up" viewBox="0 0 6 4.789">
        <path d="M3,0,6,4.789H0Z" fill="currentColor"/>
    </symbol>

    <symbol id="checkbox-checked" viewBox="0 0 15 15">
        <rect width="15" height="15" rx="2"/>
        <g transform="translate(-160 -138)">
            <line x2="4.204" y2="4" transform="translate(161.688 145.345)" fill="none" stroke="#fff" stroke-width="1.5"/>
            <path d="M0,7.757,4.193,3.879,8.385,0" transform="translate(164.927 141.621)" fill="none" stroke="#fff" stroke-width="1.5"/>
        </g>
    </symbol>

    <symbol id="checkbox-unchecked" viewBox="0 0 15 15">
        <g fill="none" stroke="#707070" stroke-width="1">
            <rect width="15" height="15" rx="2" stroke="none"/>
            <rect x="0.5" y="0.5" width="14" height="14" rx="1.5" fill="none"/>
        </g>
    </symbol>

    <symbol id="plus-circle" viewBox="0 0 16 16">
        <circle cx="8" cy="8" r="8" />
        <line x2="10" transform="translate(3 8.32)" fill="none" stroke="#fff" stroke-linecap="round" stroke-width="2"/>
        <line y2="10" transform="translate(8 3.32)" fill="none" stroke="#fff" stroke-linecap="round" stroke-width="2"/>
    </symbol>


    <symbol id="star-filled" viewBox="0 0 20 20">
        <path d="M10 1.3l2.388 6.722H18.8l-5.232 3.948 1.871 6.928L10 14.744l-5.438 4.154 1.87-6.928-5.233-3.948h6.412L10 1.3z"/>
    </symbol>

    <symbol id="star-outlined" viewBox="0 0 20 20">
        <path d="M18.8 8.022h-6.413L10 1.3 7.611 8.022H1.199l5.232 3.947-1.871 6.929L10 14.744l5.438 4.154-1.869-6.929L18.8 8.022zM10 12.783l-3.014 2.5 1.243-3.562-2.851-2.3 3.522.101 1.1-4.04 1.099 4.04 3.521-.101-2.851 2.3 1.243 3.562-3.012-2.5z"/>
    </symbol>

    <symbol id="trash-can" viewBox="0 0 16 16">
        <path d="M0,0H13a0,0,0,0,1,0,0V10a2,2,0,0,1-2,2H2a2,2,0,0,1-2-2V0A0,0,0,0,1,0,0Z" transform="translate(1.5 4)" />
        <rect width="16" height="2" rx="1" transform="translate(0 1)" />
        <path d="M0,0V8" transform="translate(4 5.48)" fill="none" stroke="#fff" stroke-linecap="round" stroke-width="1.5"/>
        <path d="M0,0V8" transform="translate(8 5.48)" fill="none" stroke="#fff" stroke-linecap="round" stroke-width="1.5"/>
        <path d="M0,0V8" transform="translate(12 5.48)" fill="none" stroke="#fff" stroke-linecap="round" stroke-width="1.5"/>
        <path d="M1,0H3A1,1,0,0,1,4,1V1A0,0,0,0,1,4,1H0A0,0,0,0,1,0,1V1A1,1,0,0,1,1,0Z" transform="translate(6)" />
    </symbol>

    <symbol id="close" viewBox="0 0 18.155 18.121">
        <g transform="translate(1.061 1.061)">
            <line x2="16" y2="16" fill="none" stroke="currentColor" stroke-width="3"/>
            <path d="M15,0,0,16" transform="translate(1)" fill="none" stroke="currentColor" stroke-width="3"/>
        </g>
    </symbol>

</svg>